<svg width="261" height="64" viewBox="0 0 261 64" fill="none" xmlns="http://www.w3.org/2000/svg">
<path d="M0 27.9939V8.09267L4.03078 3.97488L8.06157 8.09267V27.9939L4.03078 32.0223L0 27.9939ZM0 36.0419L4.03078 32.0134L8.06157 36.0419V59.9626L4.03078 63.9911L0 59.9626V36.0419ZM8.05263 0H19.4926L23.5233 3.98381L19.4926 8.1016H8.05263L4.02185 3.98381L8.05263 0ZM27.5988 8.09267V27.9939L23.5233 32.0223L19.4926 27.9939V8.09267L23.5233 3.97488L27.5988 8.09267ZM27.5988 0H39.0387L43.0695 3.98381L39.0387 8.1016H27.5988L23.5233 3.98381L27.5988 0ZM47.1003 8.09267V27.9939L43.0695 32.0223L39.0387 27.9939V8.09267L43.0695 3.97488L47.1003 8.09267ZM43.0695 63.9911L39.0387 59.9626V36.0419L43.0695 32.0134L47.1003 36.0419V59.9626L43.0695 63.9911Z" fill="#FF5C00"></path>
<path d="M60.283 4.02847L64.3138 8.1016V28.0028L60.283 31.9866L56.2522 28.0028V8.09267L60.283 4.01954V4.02847ZM60.283 59.9715L64.3138 55.9431V36.0419L60.283 31.9687L56.2522 36.0419V55.9431L60.283 59.9715ZM60.283 4.02847L64.3138 8.1016H95.2999L99.3306 4.02847L95.2999 0H64.3138L60.283 4.02847ZM60.283 31.9777L64.3138 36.0061H95.2999L99.3306 31.9777L95.2999 27.9492H64.3138L60.283 31.9777ZM60.283 59.9715L64.3138 64H95.2999L99.3306 59.9715L95.2999 55.9431H64.3138L60.283 59.9715Z" fill="#FF5C00"></path>
<path d="M108.474 4.02847L112.504 0L116.535 4.02847V27.9939L112.504 32.0223L108.474 27.9939V4.02847ZM108.474 36.0419L112.504 32.0134L116.535 36.0419V59.9626L112.504 63.9911L108.474 59.9626V36.0419ZM117.357 7.72645L119.413 2.42066L124.722 4.52868L134.285 26.4843L132.176 31.7901L126.867 29.6821L117.349 7.72645H117.357ZM130.075 37.0959L132.185 31.7901L137.493 33.8445L147.057 55.8001L144.947 61.1059L139.638 58.9979L130.075 37.087V37.0959ZM147.512 4.02847L151.543 0L155.574 4.02847V27.9939L151.543 32.0223L147.512 27.9939V4.02847ZM147.512 36.0419L151.543 32.0134L155.574 36.0419V59.9626L151.543 63.9911L147.512 59.9626V36.0419Z" fill="#FF5C00"></path>
<path d="M168.757 0L172.788 4.02847V27.9939L168.757 31.9777L164.726 27.9492V4.02847L168.757 0ZM172.779 55.9431V36.0419L168.748 31.9687L164.717 36.0419V55.9431L168.748 59.9715L172.779 55.9431ZM203.765 55.9431H172.779L168.748 59.9715L172.779 64H203.765L207.795 59.9715L203.765 55.9431Z" fill="#FF5C00"></path>
<path d="M217.922 4.02847L221.952 8.1016V28.0028L217.922 31.9866L213.891 28.0028V8.09267L217.922 4.01954V4.02847ZM217.922 59.9715L221.952 55.9431V36.0419L217.922 31.9687L213.891 36.0419V55.9431L217.922 59.9715ZM217.922 4.02847L221.952 8.1016H252.938L256.969 4.02847L252.938 0H221.952L217.922 4.02847ZM217.922 59.9715L221.952 64H252.938L256.969 59.9715L252.938 55.9431H221.952L217.922 59.9715ZM256.969 4.02847L261 8.1016V28.0028L256.969 31.9866L252.938 28.0028V8.09267L256.969 4.01954V4.02847ZM256.969 31.9777L252.938 36.0508V55.952L256.969 59.9805L261 55.952V36.0508L256.969 31.9777Z" fill="#FF5C00"></path>
</svg>